<svg width="433" height="89" viewBox="0 0 433 89" fill="none" xmlns="http://www.w3.org/2000/svg">
<path d="M20.1 68.2L0.5 18.3H16.4L21.9 34.1C23.3 38.1667 24.4333 41.6667 25.3 44.6C26.2333 47.5333 26.8 49.4667 27 50.4L27.3 51.8C28.0333 49.1333 29.8333 43.2333 32.7 34.1L37.7 18.3H52.7L34.4 67.5C29.1333 81.7 21.1 88.8 10.3 88.8C8.23333 88.8 6.36667 88.6333 4.7 88.3V76.7C5.76667 76.9667 6.9 77.1 8.1 77.1C13.6333 77.1 17.6333 74.1333 20.1 68.2ZM81.6227 69.8C73.6893 69.8 67.556 67.4333 63.2227 62.7C58.8893 57.9 56.7227 51.7667 56.7227 44.3C56.7227 36.5 58.9893 30.1 63.5227 25.1C68.056 20.0333 74.0893 17.5 81.6227 17.5C89.4893 17.5 95.5893 19.9333 99.9227 24.8C104.256 29.6667 106.423 35.8667 106.423 43.4C106.423 51.0667 104.223 57.4 99.8227 62.4C95.4893 67.3333 89.4227 69.8 81.6227 69.8ZM81.5227 29C78.3227 29 75.9227 30.3667 74.3227 33.1C72.7227 35.8333 71.9227 39.3667 71.9227 43.7C71.9227 48.0333 72.7227 51.6 74.3227 54.4C75.9893 57.1333 78.456 58.5 81.7227 58.5C84.9227 58.5 87.2893 57.1667 88.8227 54.5C90.4227 51.7667 91.2227 48.2333 91.2227 43.9C91.2227 33.9667 87.9893 29 81.5227 29ZM147.361 18.3H161.961V69H147.361V60.9C144.694 66.5667 139.561 69.4 131.961 69.4C126.761 69.4 122.694 67.9667 119.761 65.1C116.894 62.1667 115.461 57.8667 115.461 52.2V18.3H130.061V48.9C130.061 54.8333 132.661 57.8 137.861 57.8C144.194 57.8 147.361 53.5667 147.361 45.1V18.3ZM188.469 18.3V27.7C189.402 24.7667 190.935 22.4333 193.069 20.7C195.269 18.9 197.802 18 200.669 18C202.269 18 203.535 18.1333 204.469 18.4V32.2C202.869 31.4667 201.035 31.1 198.969 31.1C195.835 31.1 193.302 32.2667 191.369 34.6C189.435 36.8667 188.469 39.9 188.469 43.7V69H173.869L173.969 18.3H188.469Z" fill="#04B7CF"/>
<path d="M221.78 69L205.48 18.3H220.58L224.98 35C226.047 39.2 226.947 43 227.68 46.4C228.414 49.7333 228.847 52.0333 228.98 53.3L229.28 55.2C229.747 51.2 231.38 44.4667 234.18 35L239.08 18.3H251.68L256.48 35C257.68 39.2667 258.68 43.1 259.48 46.5C260.28 49.8333 260.78 52.1333 260.98 53.4L261.28 55.2C261.747 51.2667 263.314 44.5333 265.98 35L270.68 18.3H285.08L268.88 69H253.88L249.48 52.4C248.547 48.8 247.714 45.4333 246.98 42.3C246.314 39.1667 245.88 36.9333 245.68 35.6L245.38 33.6C244.714 38.0667 243.314 44.3333 241.18 52.4L236.78 69H221.78ZM313.947 69.8C306.014 69.8 299.88 67.4333 295.547 62.7C291.214 57.9 289.047 51.7667 289.047 44.3C289.047 36.5 291.314 30.1 295.847 25.1C300.38 20.0333 306.414 17.5 313.947 17.5C321.814 17.5 327.914 19.9333 332.247 24.8C336.58 29.6667 338.747 35.8667 338.747 43.4C338.747 51.0667 336.547 57.4 332.147 62.4C327.814 67.3333 321.747 69.8 313.947 69.8ZM313.847 29C310.647 29 308.247 30.3667 306.647 33.1C305.047 35.8333 304.247 39.3667 304.247 43.7C304.247 48.0333 305.047 51.6 306.647 54.4C308.314 57.1333 310.78 58.5 314.047 58.5C317.247 58.5 319.614 57.1667 321.147 54.5C322.747 51.7667 323.547 48.2333 323.547 43.9C323.547 33.9667 320.314 29 313.847 29ZM362.785 18.3V27.7C363.718 24.7667 365.252 22.4333 367.385 20.7C369.585 18.9 372.118 18 374.985 18C376.585 18 377.852 18.1333 378.785 18.4V32.2C377.185 31.4667 375.352 31.1 373.285 31.1C370.152 31.1 367.618 32.2667 365.685 34.6C363.752 36.8667 362.785 39.9 362.785 43.7V69H348.185L348.285 18.3H362.785ZM432.997 69H416.097L399.897 44.1V69H385.297V-5.72205e-06H399.897V41L415.897 18.3H432.697L415.097 42.6L432.997 69Z" fill="black"/>
</svg>
